<?xml version="1.0" encoding="UTF-8" standalone="no"?>
<!-- Created with Inkscape (http://www.inkscape.org/) -->

<svg
   width="64"
   height="64"
   viewBox="0 0 16.933333 16.933333"
   version="1.1"
   id="svg1"
   xml:space="preserve"
   inkscape:version="1.4.3 (0d15f75, 2025-12-25)"
   sodipodi:docname="SilkyCP4fromMix.svg"
   inkscape:export-filename="SilkyCP4fromMixCurve2.png"
   inkscape:export-xdpi="96"
   inkscape:export-ydpi="96"
   xmlns:inkscape="http://www.inkscape.org/namespaces/inkscape"
   xmlns:sodipodi="http://sodipodi.sourceforge.net/DTD/sodipodi-0.dtd"
   xmlns="http://www.w3.org/2000/svg"
   xmlns:svg="http://www.w3.org/2000/svg"><sodipodi:namedview
     id="namedview1"
     pagecolor="#ffffff"
     bordercolor="#000000"
     borderopacity="0.2627451"
     inkscape:showpageshadow="2"
     inkscape:pageopacity="0.0"
     inkscape:pagecheckerboard="0"
     inkscape:deskcolor="#d1d1d1"
     inkscape:document-units="mm"
     inkscape:zoom="5.109375"
     inkscape:cx="51.669725"
     inkscape:cy="32.391437"
     inkscape:window-width="1920"
     inkscape:window-height="1009"
     inkscape:window-x="-8"
     inkscape:window-y="-8"
     inkscape:window-maximized="1"
     inkscape:current-layer="layer1" /><defs
     id="defs1"><rect
       x="68.501529"
       y="14.091743"
       width="82.006116"
       height="57.541284"
       id="rect1" /><rect
       x="68.501526"
       y="14.091743"
       width="82.006119"
       height="57.541283"
       id="rect1-8" /></defs><g
     inkscape:label="Layer 1"
     inkscape:groupmode="layer"
     id="layer1"><path
       style="fill:#ff0000;stroke:#00ff00;stroke-width:1.05669;stroke-dasharray:none"
       d="M 0.87569271,0.62026952 V 16.158291"
       id="path3-2" /><path
       style="fill:#ff0000;stroke:#ff0000;stroke-width:1.033;stroke-dasharray:none"
       d="M 1.3856316,15.79825 H 16.276356"
       id="path3-2-2" /><g
       id="g6"
       transform="matrix(0.97223271,0,0,1.016908,0.02683094,-0.27079942)"><path
         style="fill:none;stroke:#cccccc;stroke-width:0.691847;stroke-dasharray:none"
         d="M 1.1320676,15.83168 C 1.3752467,15.337108 2.5631696,10.757107 4.3906689,9.4022344 6.477273,7.8552663 9.3794653,8.785619 11.380003,7.0997404 13.383324,5.4115164 14.750104,0.66478149 14.750104,0.66478149"
         id="path3"
         sodipodi:nodetypes="cssc" /><path
         style="fill:none;stroke:#ff6600;stroke-width:0.674337;stroke-dasharray:none"
         d="M 1.6104244,16.103809 C 1.8537627,15.634262 2.8479195,11.176103 4.6766147,9.8897864 6.7645845,8.4210954 9.5230645,9.290088 11.524911,7.6895158 13.529544,6.0867156 15.286008,0.93501747 15.286008,0.93501747"
         id="path3-4"
         sodipodi:nodetypes="cssc" /></g><g
       id="g1"
       transform="matrix(1.0166277,0,0,0.92221283,-0.47728314,0.93664654)"><g
         id="g5-0"
         transform="matrix(-1.3974604,-0.3407516,0.36902927,-1.2903769,17.823524,27.847346)"
         style="fill:#666666;stroke:#666666"><path
           style="fill:#666666;stroke:#666666;stroke-width:0.692999;stroke-dasharray:none"
           d="m 7.4586549,7.7172986 2.7828721,2.5265554 0.01625,-0.5563763"
           id="path4-0-6"
           sodipodi:nodetypes="ccc" /><path
           style="fill:#666666;stroke:#666666;stroke-width:0.455011;stroke-dasharray:none"
           d="m 9.1783595,10.837495 1.5243175,0.0771 0.0035,-1.6014685 z"
           id="path5-2-1-4"
           sodipodi:nodetypes="ccc" /></g><g
         id="g5-0-6"
         transform="matrix(-1.3974604,-0.3407516,0.36902927,-1.2903769,18.300772,27.265756)"
         style="fill:#00ffff;stroke:#00ffff"><path
           style="fill:#00ffff;stroke:#00ffff;stroke-width:0.692999;stroke-dasharray:none"
           d="m 7.4586549,7.7172986 2.7828721,2.5265554 0.01625,-0.5563763"
           id="path4-0-6-1"
           sodipodi:nodetypes="ccc" /><path
           style="fill:#00ffff;stroke:#00ffff;stroke-width:0.455011;stroke-dasharray:none"
           d="m 9.1783595,10.837495 1.5243175,0.0771 0.0035,-1.6014685 z"
           id="path5-2-1-4-8"
           sodipodi:nodetypes="ccc" /></g></g><g
       id="g7"
       transform="matrix(-1.1107107,0.06606281,0.03001185,-1.2384979,11.191333,6.2467522)"><g
         id="g5-0-7"
         transform="matrix(-1.3974604,-0.3407516,0.36902927,-1.2903769,15.728704,17.335215)"
         style="fill:#666666;stroke:#666666"><path
           style="fill:#666666;stroke:#666666;stroke-width:0.692999;stroke-dasharray:none"
           d="m 7.4586549,7.7172986 2.7828721,2.5265554 0.01625,-0.5563763"
           id="path4-0-6-8"
           sodipodi:nodetypes="ccc" /><path
           style="fill:#666666;stroke:#666666;stroke-width:0.455011;stroke-dasharray:none"
           d="m 9.1783595,10.837495 1.5243175,0.0771 0.0035,-1.6014685 z"
           id="path5-2-1-4-82"
           sodipodi:nodetypes="ccc" /></g><g
         id="g5-0-6-9"
         transform="matrix(-1.3974604,-0.3407516,0.36902927,-1.2903769,15.222058,17.323248)"
         style="fill:#e6e6e6;stroke:#e6e6e6"><path
           style="fill:#00ffff;stroke:#00ffff;stroke-width:0.692999;stroke-dasharray:none"
           d="m 7.4586549,7.7172986 2.7828721,2.5265554 0.01625,-0.5563763"
           id="path4-0-6-1-1"
           sodipodi:nodetypes="ccc" /><path
           style="fill:#00ffff;stroke:#00ffff;stroke-width:0.455011;stroke-dasharray:none"
           d="m 9.1783595,10.837495 1.5243175,0.0771 0.0035,-1.6014685 z"
           id="path5-2-1-4-8-3"
           sodipodi:nodetypes="ccc" /></g></g><text
       xml:space="preserve"
       transform="matrix(0.23568071,0,0,0.23568071,-5.6401746,1.8099423)"
       id="text1"
       style="font-size:42.6667px;font-family:Verdana;-inkscape-font-specification:Verdana;writing-mode:lr-tb;direction:ltr;white-space:pre;shape-inside:url(#rect1);display:inline;fill:#000000;stroke:none;stroke-width:3.77953"><tspan
         x="68.501953"
         y="53.017919"
         id="tspan3">4</tspan></text><text
       xml:space="preserve"
       transform="matrix(0.23568071,0,0,0.23568071,-6.0550319,1.280612)"
       id="text1-5"
       style="font-size:42.6667px;font-family:Verdana;-inkscape-font-specification:Verdana;writing-mode:lr-tb;direction:ltr;white-space:pre;shape-inside:url(#rect1-8);display:inline;fill:#e6e6e6;stroke:none;stroke-width:3.77953"><tspan
         x="68.501953"
         y="53.017919"
         id="tspan4">4</tspan></text></g></svg>
